<svg xmlns="http://www.w3.org/2000/svg" viewBox="0 0 64 64" width="256px" height="256px"><path fill="#c2cde7" d="M29.284,58.443c1.497-1.46,3.935-1.46,5.432,0C36.338,60.025,38.555,61,41,61 c3.918,0,7.242-2.508,8.478-6.002c0.008,0,0.015,0.002,0.022,0.002c2.485,0,4.5-2.015,4.5-4.5c0-0.605-0.123-1.18-0.34-1.706 C56.723,48.047,59,45.293,59,42c0-1.219-0.313-2.365-0.861-3.364C59.871,37.362,61,35.315,61,33c0-3.324-2.319-6.1-5.425-6.816 C56.458,25.209,57,23.919,57,22.5c0-3.038-2.462-5.5-5.5-5.5c-0.036,0-0.072,0.005-0.108,0.005c0.544-1.06,0.762-2.316,0.492-3.64 c-0.433-2.12-2.155-3.835-4.277-4.255c-1.325-0.262-2.581-0.04-3.639,0.511c0.087-0.841,0.005-1.731-0.33-2.653 c-0.741-2.04-2.57-3.58-4.717-3.899c-1.91-0.284-3.683,0.333-4.956,1.49c-1.107,1.006-2.824,1.006-3.931,0 c-1.273-1.157-3.045-1.774-4.956-1.49c-2.147,0.319-3.976,1.859-4.717,3.899c-0.335,0.922-0.416,1.812-0.33,2.653 c-1.058-0.55-2.314-0.773-3.639-0.511c-2.123,0.421-3.845,2.135-4.277,4.255c-0.27,1.325-0.052,2.58,0.492,3.64 C12.572,17.005,12.536,17,12.5,17C9.462,17,7,19.462,7,22.5c0,1.419,0.542,2.709,1.425,3.684C5.319,26.9,3,29.676,3,33 c0,2.315,1.129,4.362,2.861,5.636C5.313,39.635,5,40.781,5,42c0,3.293,2.277,6.047,5.34,6.794C10.123,49.32,10,49.895,10,50.5 c0,2.485,2.015,4.5,4.5,4.5c0.008,0,0.015-0.002,0.022-0.002C15.758,58.492,19.082,61,23,61C25.445,61,27.662,60.025,29.284,58.443z"/><path fill="#b5c4e0" d="M61,33c0-3.324-2.319-6.1-5.425-6.816C56.458,25.209,57,23.919,57,22.5c0-3.038-2.462-5.5-5.5-5.5 c-0.036,0-0.072,0.005-0.108,0.005c0.544-1.06,0.762-2.316,0.492-3.64c-0.433-2.12-2.155-3.835-4.277-4.255 c-1.325-0.262-2.581-0.039-3.639,0.511c0.087-0.841,0.005-1.731-0.33-2.653c-0.741-2.04-2.57-3.58-4.717-3.899 c-1.91-0.284-3.683,0.333-4.956,1.49C33.412,5.062,32.706,5.313,32,5.313v52.034c0.984,0,1.968,0.365,2.716,1.095 C36.338,60.025,38.555,61,41,61c3.918,0,7.242-2.508,8.478-6.002c0.008,0,0.015,0.002,0.022,0.002c2.485,0,4.5-2.015,4.5-4.5 c0-0.605-0.123-1.18-0.34-1.706C56.723,48.047,59,45.293,59,42c0-1.219-0.313-2.365-0.861-3.364C59.871,37.362,61,35.315,61,33z"/><path fill="#f9e3ae" d="M21 16A3 3 0 1 0 21 22 3 3 0 1 0 21 16zM42 16A3 3 0 1 0 42 22 3 3 0 1 0 42 16zM47 29A3 3 0 1 0 47 35 3 3 0 1 0 47 29zM41 43A3 3 0 1 0 41 49 3 3 0 1 0 41 43zM23 43A3 3 0 1 0 23 49 3 3 0 1 0 23 43zM17 29A3 3 0 1 0 17 35 3 3 0 1 0 17 29z"/><g><path fill="#8d6c9f" d="M31 15h2c.553 0 1-.448 1-1s-.447-1-1-1h-2c-.553 0-1 .448-1 1S30.447 15 31 15zM31 10h2c.553 0 1-.448 1-1s-.447-1-1-1h-2c-.553 0-1 .448-1 1S30.447 10 31 10zM33 25c.553 0 1-.448 1-1s-.447-1-1-1h-2c-.553 0-1 .448-1 1s.447 1 1 1H33zM33 33h-2c-.553 0-1 .448-1 1s.447 1 1 1h2c.553 0 1-.448 1-1S33.553 33 33 33zM33 38h-2c-.553 0-1 .448-1 1s.447 1 1 1h2c.553 0 1-.448 1-1S33.553 38 33 38zM33 43h-2c-.553 0-1 .448-1 1s.447 1 1 1h2c.553 0 1-.448 1-1S33.553 43 33 43zM33 48h-2c-.553 0-1 .448-1 1s.447 1 1 1h2c.553 0 1-.448 1-1S33.553 48 33 48zM33 53h-2c-.553 0-1 .448-1 1s.447 1 1 1h2c.553 0 1-.448 1-1S33.553 53 33 53z"/><path fill="#8d6c9f" d="M59.89,40.737c-0.028-0.178-0.061-0.354-0.102-0.53c-0.032-0.141-0.067-0.281-0.106-0.42 c-0.041-0.142-0.089-0.281-0.138-0.421c-0.052-0.15-0.101-0.301-0.162-0.448c-0.001-0.003-0.002-0.006-0.003-0.009 C61.033,37.403,62,35.249,62,33c0-2.712-1.349-5.125-3.472-6.578c-0.021-0.017-0.032-0.04-0.054-0.055 c-0.039-0.026-0.082-0.046-0.121-0.071c-0.128-0.083-0.262-0.157-0.395-0.232c-0.186-0.106-0.375-0.205-0.568-0.294 c-0.073-0.034-0.138-0.078-0.212-0.11C57.713,24.699,58,23.614,58,22.5c0-3.142-2.24-5.77-5.208-6.371 c0.25-0.957,0.276-1.961,0.071-2.963c-0.513-2.515-2.547-4.539-5.062-5.037c-0.422-0.083-0.844-0.119-1.263-0.121 C46.524,8.007,46.513,8,46.5,8c-0.021,0-0.04,0.004-0.061,0.004c-0.277,0.002-0.552,0.02-0.824,0.057 c-0.078,0.011-0.154,0.03-0.231,0.044c-0.145,0.025-0.29,0.046-0.432,0.081c-0.063-0.528-0.188-1.049-0.374-1.56 c-0.869-2.394-3.032-4.178-5.509-4.547c-2.109-0.314-4.214,0.32-5.775,1.739c-0.724,0.659-1.86,0.66-2.586,0 C29.146,2.4,27.042,1.764,24.932,2.08c-2.477,0.369-4.64,2.153-5.509,4.546c-0.187,0.511-0.311,1.033-0.374,1.561 c-0.921-0.227-1.885-0.248-2.85-0.058c-2.516,0.498-4.55,2.522-5.062,5.036c-0.205,1.002-0.179,2.007,0.071,2.964 C8.24,16.73,6,19.358,6,22.5c0,1.114,0.287,2.199,0.823,3.159c-0.003,0.001-0.005,0.003-0.008,0.004 c-0.311,0.135-0.611,0.293-0.903,0.468c-0.073,0.043-0.145,0.085-0.217,0.13c-0.267,0.171-0.528,0.354-0.775,0.558 c-0.104,0.085-0.198,0.179-0.297,0.269c-0.094,0.085-0.191,0.165-0.281,0.255c-0.014,0.014-0.019,0.034-0.032,0.049 C2.874,28.845,2,30.824,2,33c0,2.249,0.967,4.403,2.621,5.911c-0.005,0.012-0.008,0.024-0.013,0.036 c-0.036,0.087-0.063,0.177-0.096,0.266c-0.083,0.223-0.156,0.448-0.219,0.677c-0.016,0.058-0.041,0.113-0.055,0.171 c-0.005,0.02,0.001,0.038-0.003,0.058C4.086,40.733,4,41.364,4,42c0,3.342,2.052,6.273,5.102,7.451 C9.1,49.46,9.101,49.469,9.099,49.477C9.036,49.809,9,50.15,9,50.5c0,2.78,2.073,5.085,4.82,5.446C15.389,59.593,18.997,62,23,62 c2.624,0,5.104-1.009,6.982-2.841c1.113-1.086,2.922-1.086,4.035,0C35.896,60.991,38.376,62,41,62c3.998,0,7.604-2.401,9.174-6.041 C52.89,55.625,55,53.305,55,50.5c0-0.354-0.034-0.704-0.102-1.049C57.948,48.273,60,45.342,60,42c0-0.306-0.023-0.611-0.058-0.915 C59.929,40.968,59.908,40.853,59.89,40.737z M21,17c1.103,0,2,0.897,2,2s-0.897,2-2,2s-2-0.897-2-2S19.897,17,21,17z M41,48 c-1.103,0-2-0.897-2-2s0.897-2,2-2s2,0.897,2,2S42.103,48,41,48z M53.424,47.822c-0.284,0.069-0.522,0.258-0.655,0.518 c-0.132,0.26-0.145,0.564-0.033,0.834C52.911,49.601,53,50.047,53,50.5c0,1.93-1.569,3.5-3.459,3.5H49.54 c-0.458-0.025-0.856,0.244-1.005,0.665c-1.017,2.872-3.573,4.88-6.535,5.257V49.858c1.72-0.447,3-2,3-3.858c0-2.206-1.794-4-4-4 s-4,1.794-4,4c0,1.858,1.28,3.411,3,3.858v10.073c-1.723-0.215-3.324-0.973-4.586-2.204c-0.941-0.918-2.178-1.378-3.414-1.378 s-2.473,0.459-3.414,1.378c-1.261,1.23-2.863,1.989-4.586,2.204V53c0-0.552-0.447-1-1-1s-1,0.448-1,1v6.921 c-2.962-0.377-5.519-2.385-6.535-5.257c-0.148-0.418-0.562-0.683-0.999-0.664C12.552,53.981,11,52.418,11,50.5 c0-0.233,0.025-0.461,0.069-0.681c0.044-0.217,0.108-0.431,0.194-0.64C11.786,47.903,13.038,47,14.5,47 c0.284,0,0.564,0.034,0.835,0.1c0.538,0.132,1.078-0.196,1.209-0.732c0.132-0.537-0.195-1.078-0.732-1.21 C15.386,45.053,14.944,45,14.5,45c-1.958,0-3.677,1.032-4.651,2.578C7.553,46.699,6,44.511,6,42c0-0.501,0.063-0.999,0.187-1.482 c0.063-0.249,0.143-0.493,0.237-0.73c0.043-0.109,0.1-0.213,0.15-0.32c0.305-0.652,0.715-1.254,1.238-1.765 c0.396-0.385,0.403-1.019,0.018-1.414c-0.384-0.394-1.019-0.403-1.414-0.018c-0.273,0.266-0.524,0.55-0.754,0.849 C4.6,36.015,4,34.565,4,33c0-1.702,0.71-3.248,1.873-4.348c0.068-0.065,0.138-0.128,0.209-0.189 c0.207-0.178,0.423-0.348,0.656-0.497c0.03-0.02,0.062-0.037,0.093-0.056c0.549-0.339,1.159-0.599,1.819-0.751 c0.003-0.001,0.006-0.003,0.009-0.003C9.094,27.057,9.542,27,10,27c0.608,0,1.209,0.091,1.785,0.27 c0.529,0.167,1.088-0.131,1.252-0.658s-0.131-1.088-0.658-1.252C11.61,25.121,10.81,25,10,25c-0.389,0-0.772,0.037-1.151,0.091 C8.308,24.333,8,23.436,8,22.5c0-2.481,2.019-4.5,4.484-4.5c0.02,0.001,0.09,0.005,0.109,0.005c0.324,0,0.678-0.174,0.863-0.473 c0.186-0.298,0.2-0.671,0.04-0.983c-0.473-0.921-0.611-1.953-0.401-2.984c0.354-1.734,1.758-3.131,3.492-3.474 c1.036-0.204,2.064-0.06,2.983,0.417c0.135,0.071,0.282,0.1,0.429,0.105v4.529c-1.72,0.447-3,2-3,3.858c0,2.206,1.794,4,4,4 s4-1.794,4-4c0-1.858-1.28-3.411-3-3.858V6.03c0.779-1.046,1.942-1.781,3.227-1.971c1.513-0.225,3.02,0.228,4.135,1.241 c1.48,1.344,3.797,1.344,5.277,0c1.115-1.013,2.624-1.465,4.135-1.24c1.762,0.262,3.302,1.538,3.925,3.251 c0.202,0.557,0.3,1.131,0.298,1.711c-0.984,0.629-1.8,1.525-2.339,2.628c-0.242,0.496-0.037,1.095,0.459,1.337 c0.142,0.069,0.291,0.102,0.438,0.102c0.37,0,0.726-0.206,0.899-0.561c0.441-0.902,1.151-1.598,2.002-2.031 c0.214-0.109,0.434-0.201,0.658-0.274c0.011-0.004,0.021-0.008,0.032-0.012c0.724-0.23,1.495-0.272,2.265-0.12 c1.734,0.343,3.138,1.74,3.492,3.475c0.21,1.03,0.071,2.062-0.401,2.983c-0.16,0.312-0.146,0.686,0.04,0.983 c0.186,0.299,0.527,0.482,0.863,0.473L51.5,18c2.481,0,4.5,2.019,4.5,4.5c0,0.94-0.311,1.841-0.857,2.603 c-1.335-0.192-2.714-0.065-3.983,0.416c-0.516,0.196-0.775,0.774-0.579,1.29c0.195,0.517,0.774,0.774,1.29,0.58 c1.114-0.424,2.346-0.491,3.504-0.223c0.3,0.07,0.587,0.167,0.865,0.278c0.075,0.03,0.148,0.063,0.221,0.096 c0.22,0.098,0.432,0.209,0.636,0.332c0.063,0.038,0.128,0.071,0.189,0.111C58.945,29.062,60,30.917,60,33 c0,1.566-0.601,3.018-1.664,4.125c-0.572-0.741-1.271-1.393-2.094-1.909c-0.467-0.291-1.084-0.151-1.379,0.317 c-0.293,0.468-0.151,1.085,0.316,1.378c0.884,0.553,1.59,1.306,2.074,2.181c0.004,0.008,0.004,0.017,0.008,0.025 c0.362,0.66,0.596,1.385,0.691,2.131C57.983,41.495,58,41.746,58,42H48v-6.142c1.72-0.447,3-2,3-3.858c0-2.206-1.794-4-4-4 s-4,1.794-4,4c0,1.858,1.28,3.411,3,3.858V42c0,1.103,0.897,2,2,2h9.658C56.999,45.866,55.439,47.33,53.424,47.822z M47,34 c-1.103,0-2-0.897-2-2s0.897-2,2-2s2,0.897,2,2S48.103,34,47,34z"/><path fill="#8d6c9f" d="M46 19c0-2.206-1.794-4-4-4-1.859 0-3.411 1.28-3.858 3H31c-.553 0-1 .448-1 1s.447 1 1 1h7.142c.447 1.72 1.999 3 3.858 3C44.206 23 46 21.206 46 19zM42 21c-1.103 0-2-.897-2-2s.897-2 2-2 2 .897 2 2S43.103 21 42 21zM24 42.142V40c0-1.103-.897-2-2-2h-4v-2.142c1.72-.447 3-2 3-3.858 0-2.206-1.794-4-4-4s-4 1.794-4 4c0 1.858 1.28 3.411 3 3.858V38c0 1.103.897 2 2 2h4v2.142c-1.72.447-3 2-3 3.858 0 2.206 1.794 4 4 4s4-1.794 4-4C27 44.142 25.72 42.589 24 42.142zM15 32c0-1.103.897-2 2-2s2 .897 2 2-.897 2-2 2S15 33.103 15 32zM23 48c-1.103 0-2-.897-2-2s.897-2 2-2 2 .897 2 2S24.103 48 23 48zM40 34h-2v-4c0-1.103-.897-2-2-2H26v-3c0-.552-.447-1-1-1s-1 .448-1 1v3c0 1.103.897 2 2 2h10v4c0 1.103.897 2 2 2h2v3c0 .552.447 1 1 1s1-.448 1-1v-3C42 34.897 41.103 34 40 34z"/></g></svg>