<svg xmlns="http://www.w3.org/2000/svg" width="200" height="200" viewBox="0 0 100 100"><circle cx="78" cy="14" r="1" fill="#f1bc19"/><circle cx="50" cy="50" r="38" fill="#f9dbd2"/><circle cx="84" cy="16" r="4" fill="#f1bc19"/><circle cx="14" cy="26" r="2" fill="#ee3e54"/><circle cx="78" cy="77" r="2" fill="#fbcd59"/><circle cx="17" cy="78" r="4" fill="#fbcd59"/><circle cx="24" cy="83" r="2" fill="#ee3e54"/><circle cx="66.483" cy="78.517" r="2.483" fill="#fff"/><circle cx="16" cy="48" r="1" fill="#fff"/><circle cx="86" cy="31" r="1" fill="#f1bc19"/><circle cx="80" cy="66" r="2" fill="#fff"/><g><path fill="#c0d078" d="M30.812,42.3c-1.165,0-2.112-0.947-2.112-2.112v-9.375c0-1.165,0.947-2.112,2.112-2.112h9.375 c1.165,0,2.112,0.947,2.112,2.112v9.375c0,1.165-0.947,2.112-2.112,2.112H30.812z"/><path fill="#472b29" d="M40.187,29.4c0.779,0,1.413,0.634,1.413,1.413v9.375c0,0.779-0.634,1.413-1.413,1.413h-9.375 c-0.779,0-1.412-0.634-1.412-1.413v-9.375c0-0.779,0.634-1.413,1.412-1.413H40.187 M40.187,28h-9.375 C29.259,28,28,29.259,28,30.813v9.375C28,41.741,29.259,43,30.812,43h9.375C41.741,43,43,41.741,43,40.188v-9.375 C43,29.259,41.741,28,40.187,28L40.187,28z"/><path fill="#472b29" d="M39.5,31.75h-2.875c-0.138,0-0.25-0.112-0.25-0.25s0.112-0.25,0.25-0.25H39.5 c0.138,0,0.25,0.112,0.25,0.25S39.638,31.75,39.5,31.75z"/><path fill="#472b29" d="M31.5,33.313c-0.138,0-0.25-0.112-0.25-0.25V31.5c0-0.138,0.112-0.25,0.25-0.25h3 c0.138,0,0.25,0.112,0.25,0.25s-0.112,0.25-0.25,0.25h-2.75v1.313C31.75,33.201,31.638,33.313,31.5,33.313z"/><path fill="#472b29" d="M31.5,39.75c-0.138,0-0.25-0.112-0.25-0.25v-4.688c0-0.138,0.112-0.25,0.25-0.25 s0.25,0.112,0.25,0.25V39.5C31.75,39.638,31.638,39.75,31.5,39.75z"/><path fill="#c0d078" d="M59.812,42.3c-1.165,0-2.112-0.947-2.112-2.112v-9.375c0-1.165,0.947-2.112,2.112-2.112h9.375 c1.165,0,2.112,0.947,2.112,2.112v9.375c0,1.165-0.947,2.112-2.112,2.112H59.812z"/><path fill="#472b29" d="M69.187,29.4c0.779,0,1.413,0.634,1.413,1.413v9.375c0,0.779-0.634,1.413-1.413,1.413h-9.375 c-0.779,0-1.412-0.634-1.412-1.413v-9.375c0-0.779,0.634-1.413,1.412-1.413H69.187 M69.187,28h-9.375 C58.259,28,57,29.259,57,30.813v9.375C57,41.741,58.259,43,59.812,43h9.375C70.741,43,72,41.741,72,40.188v-9.375 C72,29.259,70.741,28,69.187,28L69.187,28z"/><path fill="#472b29" d="M68.5,39.75c-0.138,0-0.25-0.112-0.25-0.25v-1.875c0-0.138,0.112-0.25,0.25-0.25 s0.25,0.112,0.25,0.25V39.5C68.75,39.638,68.638,39.75,68.5,39.75z"/><g><path fill="#472b29" d="M68.5,36.375c-0.138,0-0.25-0.112-0.25-0.25V31.75h-1.125c-0.138,0-0.25-0.112-0.25-0.25 s0.112-0.25,0.25-0.25H68.5c0.138,0,0.25,0.112,0.25,0.25v4.625C68.75,36.263,68.638,36.375,68.5,36.375z"/></g><g><path fill="#472b29" d="M65.188,31.75H60.5c-0.138,0-0.25-0.112-0.25-0.25s0.112-0.25,0.25-0.25h4.688 c0.138,0,0.25,0.112,0.25,0.25S65.325,31.75,65.188,31.75z"/></g></g><g><path fill="#c0d078" d="M59.812,71.3c-1.165,0-2.112-0.947-2.112-2.112v-9.375c0-1.165,0.947-2.112,2.112-2.112h9.375 c1.165,0,2.112,0.947,2.112,2.112v9.375c0,1.165-0.947,2.112-2.112,2.112H59.812z"/><path fill="#472b29" d="M69.187,58.4c0.779,0,1.413,0.634,1.413,1.413v9.375c0,0.779-0.634,1.413-1.413,1.413h-9.375 c-0.779,0-1.412-0.634-1.412-1.413v-9.375c0-0.779,0.634-1.413,1.412-1.413H69.187 M69.187,57h-9.375 C58.259,57,57,58.259,57,59.813v9.375C57,70.741,58.259,72,59.812,72h9.375C70.741,72,72,70.741,72,69.188v-9.375 C72,58.259,70.741,57,69.187,57L69.187,57z"/><path fill="#472b29" d="M63.375,68.75H60.5c-0.138,0-0.25-0.112-0.25-0.25s0.112-0.25,0.25-0.25h2.875 c0.138,0,0.25,0.112,0.25,0.25S63.513,68.75,63.375,68.75z"/><path fill="#472b29" d="M68.5,68.75h-3c-0.138,0-0.25-0.112-0.25-0.25s0.112-0.25,0.25-0.25h2.75v-1.313 c0-0.138,0.112-0.25,0.25-0.25s0.25,0.112,0.25,0.25V68.5C68.75,68.638,68.638,68.75,68.5,68.75z"/><path fill="#472b29" d="M68.5,65.438c-0.138,0-0.25-0.112-0.25-0.25V60.5c0-0.138,0.112-0.25,0.25-0.25 s0.25,0.112,0.25,0.25v4.688C68.75,65.326,68.638,65.438,68.5,65.438z"/><path fill="#c0d078" d="M30.812,71.3c-1.165,0-2.112-0.947-2.112-2.112v-9.375c0-1.165,0.947-2.112,2.112-2.112h9.375 c1.165,0,2.112,0.947,2.112,2.112v9.375c0,1.165-0.947,2.112-2.112,2.112H30.812z"/><path fill="#472b29" d="M40.187,58.4c0.779,0,1.413,0.634,1.413,1.413v9.375c0,0.779-0.634,1.413-1.413,1.413h-9.375 c-0.779,0-1.412-0.634-1.412-1.413v-9.375c0-0.779,0.634-1.413,1.412-1.413H40.187 M40.187,57h-9.375 C29.259,57,28,58.259,28,59.813v9.375C28,70.741,29.259,72,30.812,72h9.375C41.741,72,43,70.741,43,69.188v-9.375 C43,58.259,41.741,57,40.187,57L40.187,57z"/><path fill="#472b29" d="M31.5,62.625c-0.138,0-0.25-0.112-0.25-0.25V60.5c0-0.138,0.112-0.25,0.25-0.25 s0.25,0.112,0.25,0.25v1.875C31.75,62.513,31.638,62.625,31.5,62.625z"/><g><path fill="#472b29" d="M32.875,68.75H31.5c-0.138,0-0.25-0.112-0.25-0.25v-4.625c0-0.138,0.112-0.25,0.25-0.25 s0.25,0.112,0.25,0.25v4.375h1.125c0.138,0,0.25,0.112,0.25,0.25S33.013,68.75,32.875,68.75z"/></g><g><path fill="#472b29" d="M39.5,68.75h-4.688c-0.138,0-0.25-0.112-0.25-0.25s0.112-0.25,0.25-0.25H39.5 c0.138,0,0.25,0.112,0.25,0.25S39.638,68.75,39.5,68.75z"/></g></g><g><path fill="#472b29" d="M51.5,33h-9c-0.276,0-0.5-0.224-0.5-0.5s0.224-0.5,0.5-0.5h9c0.276,0,0.5,0.224,0.5,0.5 S51.776,33,51.5,33z"/></g><g><path fill="#472b29" d="M57.5,33h-3c-0.276,0-0.5-0.224-0.5-0.5s0.224-0.5,0.5-0.5h3c0.276,0,0.5,0.224,0.5,0.5 S57.776,33,57.5,33z"/></g><g><path fill="#472b29" d="M67.5,52c-0.276,0-0.5-0.224-0.5-0.5v-9c0-0.276,0.224-0.5,0.5-0.5s0.5,0.224,0.5,0.5v9 C68,51.776,67.776,52,67.5,52z"/></g><g><path fill="#472b29" d="M67.5,58c-0.276,0-0.5-0.224-0.5-0.5v-3c0-0.276,0.224-0.5,0.5-0.5s0.5,0.224,0.5,0.5v3 C68,57.776,67.776,58,67.5,58z"/></g><g><path fill="#472b29" d="M57.5,68h-9c-0.276,0-0.5-0.224-0.5-0.5s0.224-0.5,0.5-0.5h9c0.276,0,0.5,0.224,0.5,0.5 S57.776,68,57.5,68z"/></g><g><path fill="#472b29" d="M45.5,68h-3c-0.276,0-0.5-0.224-0.5-0.5s0.224-0.5,0.5-0.5h3c0.276,0,0.5,0.224,0.5,0.5 S45.776,68,45.5,68z"/></g><g><path fill="#472b29" d="M32.5,58c-0.276,0-0.5-0.224-0.5-0.5v-9c0-0.276,0.224-0.5,0.5-0.5s0.5,0.224,0.5,0.5v9 C33,57.776,32.776,58,32.5,58z"/></g><g><path fill="#472b29" d="M32.5,46c-0.276,0-0.5-0.224-0.5-0.5v-3c0-0.276,0.224-0.5,0.5-0.5s0.5,0.224,0.5,0.5v3 C33,45.776,32.776,46,32.5,46z"/></g></svg>