<svg xmlns="http://www.w3.org/2000/svg" width="240" height="240" viewBox="0 0 48 48"><path fill="#880e4f" d="M12.585 5L6 7.111 6 9.294 10.2 8.11 10.2 20 13 20 13 5zM27.585 28L21 30.111 21 32.294 25.2 31.11 25.2 43 28 43 28 28zM36.989 8.334c.986 0 1.376.34 1.651.705.546.729.844 1.973.86 3.571l-.002.595c0 1.689-.291 2.982-.842 3.738-.316.433-.714.722-1.643.722-.982 0-1.374-.344-1.654-.716-.542-.726-.84-1.969-.86-3.573v-.593c0-2.15.455-3.21.838-3.724C35.619 8.681 36.011 8.334 36.989 8.334M36.989 6c-1.609 0-2.846.574-3.704 1.727C32.429 8.874 32 10.563 32 12.784v.593c.026 2.135.457 3.772 1.311 4.911C34.164 19.427 35.402 20 37.013 20c1.633 0 2.868-.584 3.712-1.746.848-1.168 1.273-2.848 1.273-5.049H42v-.593c-.022-2.135-.457-3.772-1.311-4.911C39.838 6.569 38.6 6 36.989 6L36.989 6zM22.49 10c.887 0 1.239.292 1.486.604.492.625.76 1.691.774 3.061l-.002.51c0 1.448-.262 2.556-.758 3.204-.284.371-.643.619-1.479.619-.883 0-1.237-.295-1.488-.614-.488-.622-.756-1.688-.774-3.063v-.509c0-1.843.41-2.752.754-3.192C21.257 10.298 21.61 10 22.49 10M22.49 8c-1.448 0-2.561.492-3.333 1.48C18.386 10.463 18 11.911 18 13.815v.509c.024 1.83.412 3.233 1.18 4.209C19.947 19.509 21.062 20 22.512 20c1.47 0 2.581-.5 3.341-1.497.763-1.001 1.146-2.441 1.146-4.328H27v-.509c-.02-1.83-.412-3.233-1.18-4.209C25.055 8.488 23.94 8 22.49 8L22.49 8zM37.49 33c.887 0 1.239.292 1.486.604.492.625.76 1.691.774 3.061l-.002.51c0 1.448-.262 2.556-.758 3.204-.284.371-.643.619-1.479.619-.883 0-1.237-.295-1.488-.614-.488-.622-.756-1.688-.774-3.063v-.509c0-1.843.41-2.752.754-3.192C36.257 33.298 36.61 33 37.49 33M37.49 31c-1.448 0-2.561.492-3.333 1.48C33.386 33.463 33 34.911 33 36.815v.509c.024 1.83.412 3.233 1.18 4.209C34.947 42.509 36.062 43 37.512 43c1.47 0 2.581-.5 3.341-1.497.763-1.001 1.146-2.441 1.146-4.328H42v-.509c-.02-1.83-.412-3.233-1.18-4.209C40.055 31.488 38.94 31 37.49 31L37.49 31zM11.989 31.334c.986 0 1.376.34 1.651.705.546.729.844 1.973.86 3.571l-.002.595c0 1.689-.291 2.982-.842 3.738-.316.433-.714.722-1.643.722-.982 0-1.374-.344-1.654-.716-.542-.726-.84-1.969-.86-3.573v-.593c0-2.15.455-3.21.838-3.724C10.619 31.681 11.011 31.334 11.989 31.334M11.989 29c-1.609 0-2.846.574-3.704 1.727C7.429 31.874 7 33.563 7 35.784v.593c.026 2.135.457 3.772 1.311 4.911C9.164 42.427 10.402 43 12.013 43c1.633 0 2.868-.584 3.712-1.746.848-1.168 1.273-2.848 1.273-5.049H17v-.593c-.022-2.135-.457-3.772-1.311-4.911C14.838 29.569 13.6 29 11.989 29L11.989 29z"/></svg>