<svg xmlns="http://www.w3.org/2000/svg" viewBox="0 0 100 100" width="200px" height="200px"><path fill="#ee3e54" d="M13 27A2 2 0 1 0 13 31A2 2 0 1 0 13 27Z"/><path fill="#f1bc19" d="M77 12A1 1 0 1 0 77 14A1 1 0 1 0 77 12Z"/><path fill="#fce0a2" d="M50 13A37 37 0 1 0 50 87A37 37 0 1 0 50 13Z"/><path fill="#f1bc19" d="M83 11A4 4 0 1 0 83 19A4 4 0 1 0 83 11Z"/><path fill="#ee3e54" d="M87 22A2 2 0 1 0 87 26A2 2 0 1 0 87 22Z"/><path fill="#fbcd59" d="M81 74A2 2 0 1 0 81 78 2 2 0 1 0 81 74zM15 59A4 4 0 1 0 15 67 4 4 0 1 0 15 59z"/><path fill="#ee3e54" d="M25 85A2 2 0 1 0 25 89A2 2 0 1 0 25 85Z"/><path fill="#fff" d="M18.5 51A2.5 2.5 0 1 0 18.5 56A2.5 2.5 0 1 0 18.5 51Z"/><path fill="#f1bc19" d="M21 66A1 1 0 1 0 21 68A1 1 0 1 0 21 66Z"/><path fill="#fff" d="M80 33A1 1 0 1 0 80 35A1 1 0 1 0 80 33Z"/><g><path fill="#472b29" d="M64.185 49.141H65.529V55.533H64.185z" transform="rotate(-82.062 64.856 52.339)"/><path fill="#add4a1" d="M72.29,57.748c-2.396,0-4.344-1.948-4.344-4.343c0-2.396,1.948-4.344,4.344-4.344 c2.395,0,4.343,1.948,4.343,4.344C76.633,55.8,74.685,57.748,72.29,57.748z"/><path fill="#472b29" d="M72.29,49.762c2.009,0,3.643,1.635,3.643,3.644s-1.634,3.644-3.643,3.644 s-3.643-1.635-3.643-3.644S70.281,49.762,72.29,49.762 M72.29,48.362c-2.785,0-5.043,2.258-5.043,5.043 c0,2.785,2.258,5.043,5.043,5.043s5.043-2.258,5.043-5.043C77.333,50.62,75.075,48.362,72.29,48.362L72.29,48.362z"/><path fill="#add4a1" d="M60.186,34.885c-2.395,0-4.343-1.948-4.343-4.343c0-2.396,1.948-4.344,4.343-4.344 c2.396,0,4.344,1.948,4.344,4.344C64.529,32.937,62.581,34.885,60.186,34.885z"/><path fill="#472b29" d="M60.186,26.898c2.009,0,3.643,1.635,3.643,3.644s-1.634,3.644-3.643,3.644 c-2.009,0-3.643-1.635-3.643-3.644S58.177,26.898,60.186,26.898 M60.186,25.498c-2.785,0-5.043,2.258-5.043,5.043 c0,2.786,2.258,5.043,5.043,5.043c2.785,0,5.043-2.258,5.043-5.043C65.229,27.756,62.971,25.498,60.186,25.498L60.186,25.498z"/><path fill="#add4a1" d="M34.969,36.229c-2.58,0-4.68-2.099-4.68-4.679s2.1-4.68,4.68-4.68s4.68,2.1,4.68,4.68 S37.549,36.229,34.969,36.229z"/><path fill="#472b29" d="M34.969,27.571c2.194,0,3.98,1.785,3.98,3.979s-1.785,3.98-3.98,3.98s-3.98-1.786-3.98-3.98 S32.774,27.571,34.969,27.571 M34.969,26.171c-2.971,0-5.38,2.408-5.38,5.379s2.409,5.38,5.38,5.38s5.38-2.409,5.38-5.38 S37.94,26.171,34.969,26.171L34.969,26.171z"/><path fill="#add4a1" d="M34.633 59.148A5.016 5.016 0 1 0 34.633 69.18A5.016 5.016 0 1 0 34.633 59.148Z"/><path fill="#472b29" d="M34.633,59.849c2.38,0,4.316,1.936,4.316,4.316s-1.936,4.316-4.316,4.316 s-4.316-1.936-4.316-4.316S32.253,59.849,34.633,59.849 M34.633,58.449c-3.157,0-5.716,2.559-5.716,5.716 s2.559,5.716,5.716,5.716c3.157,0,5.716-2.559,5.716-5.716S37.789,58.449,34.633,58.449L34.633,58.449z"/><path fill="#add4a1" d="M63.884,73.888c-2.58,0-4.679-2.1-4.679-4.68s2.099-4.68,4.679-4.68s4.68,2.1,4.68,4.68 S66.464,73.888,63.884,73.888z"/><path fill="#472b29" d="M63.884,65.228c2.194,0,3.98,1.786,3.98,3.98s-1.785,3.979-3.98,3.979s-3.98-1.785-3.98-3.979 S61.69,65.228,63.884,65.228 M63.884,63.828c-2.971,0-5.38,2.409-5.38,5.38c0,2.971,2.409,5.379,5.38,5.379 c2.971,0,5.38-2.409,5.38-5.379C69.264,66.237,66.855,63.828,63.884,63.828L63.884,63.828z"/><path fill="#84a7d7" d="M53.798,60.433c-5.544,0-10.054-4.51-10.054-10.054c0-5.543,4.51-10.053,10.054-10.053 c5.543,0,10.053,4.51,10.053,10.053C63.851,55.923,59.341,60.433,53.798,60.433z"/><path fill="#472b29" d="M53.797,41.025c5.158,0,9.353,4.196,9.353,9.354s-4.196,9.354-9.353,9.354 c-5.157,0-9.353-4.196-9.353-9.354S48.64,41.025,53.797,41.025 M53.797,39.625c-5.94,0-10.753,4.818-10.753,10.753 c0,5.942,4.814,10.753,10.753,10.753c5.942,0,10.753-4.811,10.753-10.753C64.551,44.443,59.74,39.625,53.797,39.625 L53.797,39.625z"/><path fill="#472b29" d="M46.808 51.724c-.165 0-.308-.121-.333-.288-.049-.347-.075-.703-.075-1.056 0-4.078 3.319-7.397 7.397-7.397.118 0 .235.003.352.009.186.009.329.166.32.351-.009.185-.177.339-.352.32-.106-.005-.212-.007-.32-.007-3.708 0-6.725 3.017-6.725 6.725 0 .322.023.646.069.961.026.184-.102.354-.285.381C46.84 51.723 46.823 51.724 46.808 51.724zM53.797 57.776c-2.28 0-4.397-1.027-5.811-2.818-.115-.146-.09-.357.056-.472.145-.114.358-.089.472.056 1.285 1.627 3.21 2.561 5.283 2.561 2.846 0 5.395-1.802 6.343-4.483.062-.175.254-.267.429-.205.175.062.267.254.205.43C59.732 55.794 56.928 57.776 53.797 57.776zM60.788 51.724c-.015 0-.032-.001-.048-.003-.184-.026-.312-.196-.286-.38.045-.317.068-.64.068-.962 0-.108-.003-.214-.007-.321-.009-.185.134-.343.32-.351.19-.017.343.134.352.32.005.116.008.233.008.352 0 .353-.025.709-.075 1.056C61.096 51.603 60.952 51.724 60.788 51.724zM60.656 49.034c-.151 0-.288-.102-.326-.256-.054-.217-.118-.432-.192-.64-.062-.176.03-.368.205-.43.176-.062.367.03.429.205.081.23.151.465.21.705.044.18-.066.362-.246.406C60.71 49.031 60.683 49.034 60.656 49.034zM35.273 34.467c-.148 0-.275-.111-.292-.261-.018-.161.099-.306.259-.324.445-.049.865-.225 1.214-.507.126-.103.311-.082.412.043.102.126.083.31-.043.412-.437.354-.962.573-1.519.634C35.294 34.467 35.284 34.467 35.273 34.467zM37.47 32.723c-.032 0-.066-.005-.098-.016-.153-.055-.232-.222-.178-.375.088-.25.133-.513.133-.782 0-1.294-1.053-2.347-2.347-2.347-.993 0-1.882.628-2.214 1.565-.054.153-.221.232-.374.179-.153-.055-.233-.222-.179-.375.414-1.169 1.526-1.956 2.767-1.956 1.618 0 2.934 1.316 2.934 2.934 0 .336-.056.665-.167.978C37.704 32.648 37.591 32.723 37.47 32.723zM63.884 72.127c-1.61 0-2.919-1.31-2.919-2.919 0-.161.131-.292.292-.292s.292.131.292.292c0 1.288 1.047 2.335 2.335 2.335.533 0 1.054-.184 1.468-.519.126-.102.309-.082.41.043.102.126.082.309-.043.41C65.202 71.896 64.55 72.127 63.884 72.127z"/><g><path fill="#472b29" d="M66.496,69.792c-0.011,0-0.022-0.001-0.032-0.002c-0.16-0.018-0.276-0.162-0.258-0.322 c0.009-0.085,0.014-0.172,0.014-0.26c0-0.267-0.045-0.529-0.133-0.778c-0.054-0.152,0.026-0.319,0.177-0.373 c0.154-0.054,0.319,0.026,0.373,0.178c0.111,0.312,0.167,0.639,0.167,0.973c0,0.11-0.006,0.218-0.018,0.324 C66.769,69.681,66.643,69.792,66.496,69.792z"/></g><g><path fill="#472b29" d="M65.636,67.541c-0.069,0-0.139-0.025-0.194-0.074c-0.429-0.384-0.982-0.595-1.557-0.595 c-0.161,0-0.292-0.131-0.292-0.292c0-0.161,0.131-0.292,0.292-0.292c0.719,0,1.411,0.264,1.946,0.743 c0.12,0.108,0.13,0.293,0.023,0.412C65.796,67.508,65.716,67.541,65.636,67.541z"/></g><g><path fill="#472b29" d="M54.232 37.633H60.624V38.977000000000004H54.232z" transform="rotate(-70.84 57.428 38.306)"/></g><g><path fill="#472b29" d="M59.199 58.795H60.544V64.851H59.199z" transform="rotate(-26.87 59.87 61.825)"/></g><g><path fill="#472b29" d="M42.087 33.293H43.432V44.913H42.087z" transform="rotate(-44.996 42.757 39.1)"/></g><g><path fill="#472b29" d="M37.974 57.62H46.888V58.964999999999996H37.974z" transform="rotate(-39.689 42.432 58.294)"/></g></g></svg>