<svg xmlns="http://www.w3.org/2000/svg" width="200" height="200" viewBox="0 0 100 100"><path fill="#ee3e54" d="M13,27c-1.105,0-2,0.895-2,2s0.895,2,2,2s2-0.895,2-2S14.105,27,13,27z"/><path fill="#f1bc19" d="M77,12c-0.551,0-1,0.449-1,1s0.449,1,1,1s1-0.449,1-1S77.551,12,77,12z"/><path fill="#fce0a2" d="M50,13c-20.434,0-37,16.566-37,37s16.566,37,37,37s37-16.566,37-37S70.434,13,50,13z"/><path fill="#f1bc19" d="M83,11c-2.211,0-4,1.789-4,4s1.789,4,4,4s4-1.789,4-4S85.211,11,83,11z"/><path fill="#ee3e54" d="M87,22c-1.105,0-2,0.895-2,2s0.895,2,2,2s2-0.895,2-2S88.105,22,87,22z"/><path fill="#fbcd59" d="M81,74c-1.105,0-2,0.895-2,2s0.895,2,2,2s2-0.895,2-2S82.105,74,81,74z M15,59 c-2.211,0-4,1.789-4,4s1.789,4,4,4s4-1.789,4-4S17.211,59,15,59z"/><path fill="#ee3e54" d="M25,85c-1.105,0-2,0.895-2,2s0.895,2,2,2s2-0.895,2-2S26.105,85,25,85z"/><path fill="#fff" d="M30.5,22c-1.379,0-2.5,1.121-2.5,2.5s1.121,2.5,2.5,2.5s2.5-1.121,2.5-2.5S31.879,22,30.5,22z"/><path fill="#f1bc19" d="M27,73c-0.551,0-1,0.449-1,1s0.449,1,1,1s1-0.449,1-1S27.551,73,27,73z"/><path fill="#fff" d="M82,39c-0.551,0-1,0.449-1,1s0.449,1,1,1s1-0.449,1-1S82.551,39,82,39z"/><path fill="#78a0cf" d="M75.75,70h-50.5C23.455,70,22,68.545,22,66.75v-33.5c0-1.795,1.455-3.25,3.25-3.25h50.5 c1.795,0,3.25,1.455,3.25,3.25v33.5C79,68.545,77.545,70,75.75,70z"/><path fill="#472b29" d="M75.5,33.75H69c-0.138,0-0.25-0.112-0.25-0.25s0.112-0.25,0.25-0.25h6.5 c0.138,0,0.25,0.112,0.25,0.25S75.638,33.75,75.5,33.75z"/><path fill="#472b29" d="M75.5,66.75H69c-0.138,0-0.25-0.112-0.25-0.25s0.112-0.25,0.25-0.25h6.5 c0.138,0,0.25,0.112,0.25,0.25S75.638,66.75,75.5,66.75z"/><path fill="#472b29" d="M52,66.75H25.5c-0.138,0-0.25-0.112-0.25-0.25s0.112-0.25,0.25-0.25H52 c0.138,0,0.25,0.112,0.25,0.25S52.138,66.75,52,66.75z"/><path fill="#472b29" d="M46.5,33.75H34c-0.138,0-0.25-0.112-0.25-0.25s0.112-0.25,0.25-0.25h12.5 c0.138,0,0.25,0.112,0.25,0.25S46.638,33.75,46.5,33.75z"/><path fill="#472b29" d="M32,33.75h-6.5c-0.138,0-0.25-0.112-0.25-0.25s0.112-0.25,0.25-0.25H32 c0.138,0,0.25,0.112,0.25,0.25S32.138,33.75,32,33.75z"/><path fill="#472b29" d="M25.501,66.75c-0.138,0-0.25-0.112-0.25-0.25V57c0-0.138,0.112-0.25,0.25-0.25s0.25,0.112,0.25,0.25 v9.5C25.751,66.638,25.64,66.75,25.501,66.75z"/><path fill="#472b29" d="M75.501,66.75c-0.138,0-0.25-0.112-0.25-0.25V58c0-0.138,0.112-0.25,0.25-0.25s0.25,0.112,0.25,0.25 v8.5C75.751,66.638,75.64,66.75,75.501,66.75z"/><path fill="#472b29" d="M75.5,40.75c-0.138,0-0.25-0.112-0.25-0.25v-7c0-0.138,0.112-0.25,0.25-0.25s0.25,0.112,0.25,0.25v7 C75.75,40.638,75.638,40.75,75.5,40.75z"/><path fill="#472b29" d="M75.5,55.75c-0.138,0-0.25-0.112-0.25-0.25v-13c0-0.138,0.112-0.25,0.25-0.25s0.25,0.112,0.25,0.25 v13C75.75,55.638,75.638,55.75,75.5,55.75z"/><path fill="#472b29" d="M75.75,31.4c1.02,0,1.85,0.83,1.85,1.85v33.5c0,1.02-0.83,1.85-1.85,1.85h-50.5 c-1.02,0-1.85-0.83-1.85-1.85v-33.5c0-1.02,0.83-1.85,1.85-1.85H75.75 M75.75,30h-50.5C23.455,30,22,31.455,22,33.25v33.5 c0,1.795,1.455,3.25,3.25,3.25h50.5c1.795,0,3.25-1.455,3.25-3.25v-33.5C79,31.455,77.545,30,75.75,30L75.75,30z"/><line x1="25.501" x2="25.5" y1="48" y2="54.5" fill="#cbc9bc"/><path fill="#472b29" d="M25.5,54.75L25.5,54.75c-0.138,0-0.25-0.112-0.25-0.25l0.001-6.5c0-0.138,0.112-0.25,0.25-0.25l0,0 c0.138,0,0.25,0.112,0.25,0.25l-0.001,6.5C25.75,54.638,25.638,54.75,25.5,54.75z"/><line x1="25.5" x2="25.499" y1="33.5" y2="39.5" fill="#cbc9bc"/><path fill="#472b29" d="M25.499,39.75L25.499,39.75c-0.138,0-0.25-0.112-0.25-0.25l0.001-6c0-0.138,0.112-0.25,0.25-0.25 l0,0c0.138,0,0.25,0.112,0.25,0.25l-0.001,6C25.749,39.638,25.637,39.75,25.499,39.75z"/><path fill="#472b29" d="M67,33.75H49.5c-0.138,0-0.25-0.112-0.25-0.25s0.112-0.25,0.25-0.25H67 c0.138,0,0.25,0.112,0.25,0.25S67.138,33.75,67,33.75z"/><path fill="#472b29" d="M67,66.75H55c-0.138,0-0.25-0.112-0.25-0.25s0.112-0.25,0.25-0.25h12c0.138,0,0.25,0.112,0.25,0.25 S67.138,66.75,67,66.75z"/><path fill="#fff" d="M46.5,61c-0.181,0-0.365-0.033-0.543-0.102c-0.772-0.3-1.155-1.17-0.854-1.942l7-18 c0.3-0.772,1.169-1.155,1.941-0.854c0.772,0.3,1.155,1.17,0.854,1.942l-7,18C47.667,60.637,47.1,61,46.5,61z"/><g><path fill="#fff" d="M41,57.5c-0.384,0-0.768-0.146-1.061-0.439l-6-6c-0.586-0.586-0.586-1.536,0-2.121l6-6 c0.586-0.586,1.535-0.586,2.121,0s0.586,1.536,0,2.121L37.121,50l4.939,4.939c0.586,0.586,0.586,1.536,0,2.121 C41.768,57.354,41.384,57.5,41,57.5z"/></g><g><path fill="#fff" d="M60,57.5c-0.384,0-0.768-0.146-1.061-0.439c-0.586-0.586-0.586-1.536,0-2.121L63.879,50 l-4.939-4.939c-0.586-0.586-0.586-1.536,0-2.121s1.535-0.586,2.121,0l6,6c0.586,0.586,0.586,1.536,0,2.121l-6,6 C60.768,57.354,60.384,57.5,60,57.5z"/></g><g><path fill="#472b29" d="M49.568,55.875c-0.015,0-0.03-0.003-0.045-0.009c-0.064-0.025-0.096-0.097-0.071-0.162l5.33-13.706 c0.133-0.342,0.125-0.716-0.022-1.052c-0.148-0.336-0.418-0.595-0.761-0.728c-0.343-0.133-0.716-0.125-1.052,0.023 c-0.336,0.148-0.594,0.418-0.727,0.76l-0.698,1.794c-0.025,0.065-0.096,0.096-0.162,0.071c-0.064-0.025-0.096-0.097-0.071-0.162 l0.698-1.794c0.157-0.404,0.462-0.724,0.86-0.898c0.396-0.175,0.838-0.184,1.244-0.027c0.405,0.157,0.724,0.463,0.898,0.86 c0.175,0.397,0.185,0.839,0.027,1.243l-5.33,13.706C49.665,55.845,49.618,55.875,49.568,55.875z"/></g><g><path fill="#472b29" d="M47.807,52.125c-0.015,0-0.03-0.003-0.045-0.009c-0.064-0.025-0.096-0.097-0.071-0.162l2.965-7.625 c0.025-0.065,0.097-0.096,0.162-0.071c0.064,0.025,0.096,0.097,0.071,0.162l-2.965,7.625 C47.904,52.095,47.857,52.125,47.807,52.125z"/></g><g><path fill="#472b29" d="M46.5,61.125c-0.202,0-0.399-0.037-0.588-0.111c-0.405-0.157-0.724-0.463-0.898-0.86 c-0.175-0.397-0.185-0.839-0.027-1.243l2.073-5.331c0.025-0.065,0.097-0.096,0.162-0.071c0.064,0.025,0.096,0.097,0.071,0.162 l-2.073,5.331c-0.133,0.342-0.125,0.716,0.022,1.052c0.148,0.336,0.418,0.595,0.761,0.728c0.16,0.062,0.327,0.094,0.498,0.094 c0.571,0,1.075-0.344,1.282-0.877l1.038-2.669c0.025-0.064,0.096-0.096,0.162-0.071c0.064,0.025,0.096,0.097,0.071,0.162 l-1.038,2.669C47.77,60.719,47.175,61.125,46.5,61.125z"/></g><g><path fill="#472b29" d="M39.25,47.996c-0.032,0-0.064-0.012-0.088-0.037c-0.049-0.049-0.049-0.128,0-0.177l2.811-2.81 c0.26-0.26,0.403-0.605,0.403-0.972s-0.143-0.713-0.403-0.972c-0.536-0.536-1.408-0.536-1.944,0c-0.049,0.049-0.128,0.048-0.177,0 c-0.049-0.049-0.049-0.128,0-0.177c0.634-0.633,1.664-0.633,2.298,0c0.307,0.307,0.476,0.715,0.476,1.149 c0,0.434-0.169,0.842-0.476,1.149l-2.811,2.81C39.314,47.984,39.282,47.996,39.25,47.996z"/></g><g><path fill="#472b29" d="M36,47.004c-0.032,0-0.064-0.012-0.088-0.037c-0.049-0.049-0.049-0.128,0-0.177l2.875-2.875 c0.049-0.049,0.128-0.049,0.177,0s0.049,0.128,0,0.177l-2.875,2.875C36.064,46.992,36.032,47.004,36,47.004z"/></g><g><path fill="#472b29" d="M41,57.625c-0.434,0-0.842-0.169-1.149-0.476l-6-6c-0.307-0.307-0.476-0.715-0.476-1.149 c0-0.434,0.169-0.842,0.476-1.149l0.811-0.811c0.049-0.049,0.128-0.049,0.177,0s0.049,0.128,0,0.177l-0.811,0.811 c-0.26,0.26-0.403,0.605-0.403,0.972s0.143,0.713,0.403,0.972l6,6c0.26,0.26,0.605,0.403,0.972,0.403s0.712-0.143,0.972-0.403 c0.26-0.26,0.403-0.605,0.403-0.972s-0.143-0.713-0.403-0.972l-4.939-4.939c-0.023-0.023-0.037-0.055-0.037-0.088 s0.013-0.065,0.037-0.088l1-1c0.049-0.049,0.128-0.049,0.177,0s0.049,0.128,0,0.177L37.298,50l4.851,4.851 c0.307,0.307,0.476,0.715,0.476,1.149c0,0.434-0.169,0.842-0.476,1.149S41.434,57.625,41,57.625z"/></g><g><path fill="#472b29" d="M60.129,53.875c-0.032,0-0.064-0.012-0.088-0.037c-0.049-0.049-0.049-0.128,0-0.177L63.702,50 l-4.851-4.851c-0.307-0.307-0.476-0.715-0.476-1.149c0-0.434,0.169-0.842,0.476-1.149c0.634-0.633,1.664-0.633,2.298,0 c0.049,0.049,0.049,0.128,0,0.177s-0.128,0.049-0.177,0c-0.536-0.536-1.408-0.536-1.944,0c-0.26,0.26-0.403,0.605-0.403,0.972 s0.143,0.713,0.403,0.972l4.939,4.939c0.023,0.023,0.037,0.055,0.037,0.088s-0.013,0.065-0.037,0.088l-3.75,3.75 C60.193,53.863,60.161,53.875,60.129,53.875z"/></g><g><path fill="#472b29" d="M60,57.625c-0.434,0-0.842-0.169-1.149-0.476S58.375,56.434,58.375,56 c0-0.434,0.169-0.842,0.476-1.149c0.049-0.049,0.128-0.048,0.177,0c0.049,0.049,0.049,0.128,0,0.177 c-0.26,0.26-0.403,0.605-0.403,0.972s0.143,0.713,0.403,0.972s0.605,0.403,0.972,0.403s0.712-0.143,0.972-0.403l4.564-4.564 c0.049-0.049,0.128-0.049,0.177,0s0.049,0.128,0,0.177l-4.564,4.564C60.842,57.456,60.434,57.625,60,57.625z"/></g><g><path fill="#472b29" d="M67.061,51.186c-0.032,0-0.064-0.012-0.088-0.037c-0.049-0.049-0.049-0.128,0-0.177 c0.26-0.26,0.403-0.605,0.403-0.972s-0.143-0.713-0.403-0.972l-4.561-4.561c-0.049-0.049-0.049-0.128,0-0.177s0.128-0.049,0.177,0 l4.561,4.561c0.307,0.307,0.476,0.715,0.476,1.149c0,0.434-0.169,0.842-0.476,1.149C67.125,51.173,67.092,51.186,67.061,51.186z"/></g></svg>