<svg xmlns="http://www.w3.org/2000/svg" width="200" height="200" viewBox="0 0 100 100"><circle cx="77" cy="13" r="1" fill="#f1bc19"/><circle cx="50" cy="50" r="37" fill="#e6edb7"/><circle cx="83" cy="15" r="4" fill="#f1bc19"/><circle cx="87" cy="24" r="2" fill="#9f8066"/><circle cx="81" cy="76" r="2" fill="#fbcd59"/><circle cx="15" cy="63" r="4" fill="#fbcd59"/><circle cx="25" cy="87" r="2" fill="#9f8066"/><circle cx="19.5" cy="43.5" r="2.5" fill="#fff"/><circle cx="79.5" cy="33.5" r="1.5" fill="#fff"/><g><path fill="#cbc9bc" d="M64.577,42.546c0,2.344,0.031,4.688-0.007,7.031c-0.075,4.679-1.677,8.803-4.595,12.441 c-1.514,1.888-3.438,3.306-5.344,4.749c-2.372,1.797-4.735,3.604-7.102,5.407c-0.539,0.41-0.835,0.414-1.359,0.013 c-3.119-2.382-6.265-4.731-9.351-7.156c-3.882-3.05-6.288-7.037-7.327-11.863c-0.403-1.874-0.392-3.768-0.39-5.666 c0.005-4.244,0.005-8.488,0.007-12.731c0-0.841,0.154-0.988,0.99-1.008c4.98-0.12,9.63-1.338,13.758-4.219 c0.84-0.586,1.596-1.294,2.373-1.966c0.431-0.372,0.813-0.401,1.205-0.018c2.67,2.604,5.876,4.253,9.436,5.252 c1.83,0.514,3.697,0.83,5.604,0.873c0.426,0.01,0.851,0.055,1.278,0.074c0.608,0.028,0.829,0.252,0.83,0.9 c0.004,2.629,0.002,5.257,0.002,7.886C64.582,42.546,64.579,42.546,64.577,42.546z"/></g><g><path fill="#472b29" d="M46.836,73.185c-0.354,0-0.706-0.146-1.092-0.441c-0.95-0.726-1.902-1.448-2.855-2.171 c-2.14-1.623-4.353-3.301-6.503-4.99c-3.944-3.1-6.494-7.227-7.579-12.267c-0.409-1.903-0.407-3.825-0.405-5.684l0.007-12.861 c0-1.216,0.454-1.679,1.673-1.709c5.232-0.125,9.607-1.463,13.375-4.092c0.623-0.436,1.197-0.94,1.805-1.475l0.511-0.446 c0.72-0.624,1.505-0.623,2.15,0.01c2.438,2.376,5.426,4.038,9.138,5.079c1.884,0.53,3.661,0.808,5.432,0.848 c0.258,0.006,0.517,0.024,0.774,0.043c0.173,0.012,0.346,0.024,0.519,0.032c0.992,0.046,1.496,0.584,1.498,1.598l0.002,7.888 c0,0.035-0.003,0.069-0.008,0.103l0.006,2.078c0.007,1.62,0.014,3.241-0.013,4.861c-0.075,4.703-1.673,9.032-4.749,12.867 c-1.492,1.86-3.367,3.28-5.181,4.653l-0.286,0.216c-1.672,1.267-3.34,2.538-5.008,3.811l-2.094,1.595 C47.554,73.034,47.195,73.185,46.836,73.185z M46.846,71.785h0.01H46.846z M29.82,34.48c-0.006,0.06-0.011,0.151-0.011,0.291 l-0.007,12.863c-0.003,1.867-0.005,3.63,0.374,5.387c1.015,4.712,3.395,8.568,7.075,11.46c2.141,1.683,4.349,3.357,6.484,4.977 c0.953,0.724,1.907,1.446,2.858,2.173c0.178,0.136,0.245,0.153,0.251,0.154c-0.007-0.002,0.065-0.021,0.259-0.168l2.094-1.595 c1.669-1.272,3.338-2.545,5.011-3.812l0.286-0.217c1.826-1.383,3.551-2.688,4.935-4.413c2.877-3.586,4.371-7.628,4.44-12.014 c0.026-1.611,0.02-3.222,0.013-4.833l-0.006-2.187c0-0.036,0.003-0.07,0.008-0.105l-0.002-7.78c0-0.095-0.006-0.155-0.013-0.192 c-0.027,0.004-0.076-0.005-0.149-0.009c-0.185-0.009-0.368-0.021-0.553-0.034c-0.236-0.017-0.473-0.034-0.708-0.039 c-1.863-0.043-3.808-0.346-5.778-0.9c-3.942-1.106-7.127-2.881-9.735-5.425c-0.05-0.048-0.081-0.067-0.095-0.074 c-0.005,0.008-0.062,0.034-0.163,0.121l-0.502,0.439c-0.61,0.536-1.24,1.091-1.929,1.571c-4,2.791-8.626,4.211-14.142,4.344 C29.973,34.465,29.88,34.473,29.82,34.48z"/></g><g><path fill="#77cbd2" d="M60.953,44.046c0,1.865,0.025,3.73-0.005,5.594c-0.06,3.723-1.335,7.004-3.656,9.898 c-1.204,1.502-2.736,2.63-4.252,3.779c-1.887,1.43-3.767,2.868-5.651,4.302c-0.428,0.326-0.664,0.329-1.081,0.011 c-2.482-1.895-4.985-3.764-7.44-5.693c-3.088-2.427-5.003-5.599-5.83-9.438c-0.321-1.491-0.312-2.998-0.31-4.508 c0.004-3.377,0.004-6.753,0.005-10.13c0-0.669,0.123-0.786,0.788-0.802c3.962-0.095,7.662-1.065,10.946-3.356 c0.668-0.466,1.27-1.029,1.888-1.564c0.343-0.296,0.647-0.319,0.959-0.015c2.125,2.072,4.675,3.384,7.508,4.179 c1.456,0.409,2.941,0.66,4.459,0.695c0.339,0.008,0.677,0.044,1.017,0.059c0.484,0.022,0.66,0.2,0.66,0.716 c0.003,2.091,0.001,4.183,0.001,6.274C60.957,44.046,60.955,44.046,60.953,44.046z"/></g><g><path fill="#472b29" d="M46.838,68.243c-0.242,0-0.483-0.105-0.758-0.315c-0.757-0.577-1.515-1.152-2.273-1.728 c-1.731-1.313-3.463-2.626-5.171-3.969c-3.104-2.439-5.11-5.688-5.965-9.654c-0.322-1.499-0.32-3.022-0.318-4.495l0.005-10.222 c0.001-0.87,0.281-1.156,1.153-1.178c4.201-0.101,7.714-1.176,10.741-3.289c0.504-0.352,0.984-0.774,1.449-1.183l0.408-0.357 c0.676-0.582,1.209-0.251,1.466,0.001c1.961,1.913,4.364,3.249,7.348,4.086c1.515,0.426,2.942,0.648,4.366,0.682 c0.203,0.005,0.407,0.019,0.61,0.033c0.139,0.01,0.276,0.02,0.415,0.025c0.692,0.032,1.017,0.379,1.018,1.091 c0.003,1.568,0.003,3.138,0.002,4.706v1.568c0,0.024-0.002,0.048-0.007,0.07l0.005,1.681c0.006,1.284,0.011,2.567-0.01,3.85 c-0.06,3.701-1.316,7.108-3.737,10.126c-1.178,1.468-2.666,2.594-4.105,3.682l-0.214,0.162c-1.298,0.983-2.592,1.971-3.887,2.958 l-1.763,1.343C47.332,68.134,47.084,68.243,46.838,68.243z M46.862,32.28c-0.064,0-0.144,0.04-0.262,0.142l-0.403,0.353 c-0.479,0.422-0.977,0.858-1.515,1.234c-3.152,2.2-6.8,3.319-11.152,3.424c-0.296,0.007-0.371,0.036-0.389,0.049 c-0.002,0.007-0.033,0.078-0.033,0.38L33.103,47.99c-0.002,1.526-0.004,3.009,0.301,4.429c0.817,3.792,2.733,6.895,5.695,9.223 c1.705,1.34,3.434,2.65,5.161,3.961c0.76,0.575,1.519,1.151,2.275,1.729c0.283,0.216,0.329,0.216,0.626-0.012l1.763-1.343 c1.296-0.988,2.591-1.976,3.889-2.959l0.215-0.162c1.402-1.062,2.853-2.158,3.972-3.553c2.314-2.885,3.517-6.138,3.573-9.669 c0.021-1.278,0.016-2.556,0.01-3.834l-0.005-1.755c0-0.024,0.002-0.049,0.007-0.071v-1.497c0.001-1.568,0.001-3.137-0.002-4.704 c-0.001-0.329-0.029-0.33-0.303-0.343c-0.144-0.007-0.288-0.018-0.433-0.027c-0.191-0.014-0.383-0.027-0.575-0.031 c-1.487-0.034-2.977-0.267-4.552-0.709c-3.106-0.872-5.614-2.27-7.668-4.271C46.985,32.326,46.932,32.28,46.862,32.28z"/></g><g><path fill="#00a5a5" d="M44.375,34.216l2.467,2.417v-4.327c-0.121,0.022-0.421,0.264-0.543,0.376 C45.67,33.259,45.031,33.763,44.375,34.216z"/><path fill="#00a5a5" d="M36.391,37.187l10.451,10.242v-4.846l-6.485-6.356c-0.389,0.133-0.786,0.259-1.199,0.373 C38.253,36.848,37.326,37.053,36.391,37.187z"/><path fill="#00a5a5" d="M40.813,62.991c1.869,1.387,5.71,4.451,6.029,4.503v-2.747l-13.643-13.37 c0.338,2.939,1.461,5.572,3.404,7.947C37.795,60.781,39.311,61.876,40.813,62.991z"/><path fill="#00a5a5" d="M33.092,44.359c0,0.13-0.002,0.258-0.002,0.387l13.752,13.478v-4.846L33.091,39.902 C33.091,41.394,33.092,42.901,33.092,44.359z"/></g><g><path fill="#472b29" d="M46.84,67.692c-0.138,0-0.25-0.112-0.25-0.25V31.906c0-0.138,0.112-0.25,0.25-0.25 s0.25,0.112,0.25,0.25v35.536C47.09,67.58,46.978,67.692,46.84,67.692z"/></g><g><path fill="#bcbce2" d="M70.103,61.43c-0.034-1.638,0.852-2.675,2.337-3.251c-0.091-0.895-1.132-3.409-1.659-4.009 c-1.425,0.667-2.774,0.566-3.91-0.556c-1.154-1.14-1.245-2.503-0.574-3.958c-1.252-0.771-2.594-1.327-4.029-1.661 c-0.485,1.412-1.427,2.297-2.903,2.406c-1.749,0.129-2.883-0.775-3.483-2.392c-1.436,0.351-2.773,0.906-4.014,1.683 c0.683,1.442,0.594,2.791-0.528,3.932c-1.136,1.156-2.496,1.263-3.957,0.591c-0.761,1.252-1.307,2.591-1.635,4.026 c1.459,0.535,2.339,1.536,2.376,3.089c0.038,1.615-0.832,2.672-2.332,3.255c0.345,1.423,0.908,2.747,1.684,3.987 c1.416-0.631,2.738-0.526,3.854,0.559c1.137,1.106,1.275,2.442,0.646,3.886c1.252,0.761,2.585,1.306,4.01,1.635 c0.021-0.042,0.037-0.068,0.048-0.095c0.515-1.343,1.686-2.202,3.025-2.219c1.432-0.018,2.618,0.78,3.166,2.144 c0.06,0.149,0.128,0.146,0.256,0.113c1.29-0.326,2.506-0.829,3.649-1.509c0.062-0.037,0.122-0.08,0.171-0.112 c-0.581-1.31-0.528-2.552,0.401-3.635c1.116-1.3,2.519-1.491,4.08-0.827c0.77-1.245,1.325-2.572,1.663-3.992 C71.007,63.969,70.136,62.983,70.103,61.43z M59.093,63.666c-1.3-0.006-2.348-1.059-2.342-2.356 c0.006-1.299,1.065-2.341,2.375-2.328c1.309,0.012,2.353,1.097,2.315,2.411C61.406,62.615,60.413,63.659,59.093,63.666z"/><path fill="#472b29" d="M55.966,75.15c-0.031,0-0.062-0.003-0.093-0.01c-1.465-0.338-2.863-0.908-4.157-1.694 c-0.214-0.13-0.299-0.398-0.198-0.627c0.577-1.327,0.402-2.416-0.536-3.329c-0.918-0.893-1.999-1.041-3.303-0.46 c-0.225,0.102-0.495,0.02-0.627-0.192c-0.806-1.288-1.394-2.68-1.746-4.134c-0.059-0.244,0.071-0.493,0.305-0.584 c1.387-0.539,2.045-1.447,2.013-2.777c-0.029-1.275-0.699-2.137-2.048-2.631c-0.236-0.087-0.372-0.336-0.315-0.581 c0.337-1.475,0.907-2.879,1.695-4.174c0.131-0.217,0.405-0.302,0.636-0.194c1.35,0.621,2.458,0.459,3.392-0.488 c0.921-0.937,1.062-2.038,0.432-3.367c-0.108-0.229-0.028-0.503,0.187-0.638c1.264-0.791,2.664-1.379,4.161-1.745 c0.252-0.06,0.5,0.073,0.588,0.312c0.556,1.497,1.52,2.184,2.977,2.066c1.213-0.089,2.02-0.766,2.468-2.068 c0.083-0.242,0.334-0.385,0.586-0.325c1.47,0.342,2.876,0.921,4.178,1.723c0.216,0.133,0.298,0.405,0.192,0.635 c-0.624,1.354-0.47,2.464,0.472,3.394c0.936,0.925,2.03,1.075,3.347,0.458c0.2-0.093,0.441-0.043,0.587,0.123 c0.598,0.678,1.681,3.283,1.782,4.288c0.023,0.225-0.106,0.436-0.316,0.517c-1.386,0.537-2.047,1.444-2.019,2.774 c0.027,1.262,0.688,2.123,2.021,2.634c0.234,0.09,0.365,0.339,0.308,0.582c-0.345,1.456-0.925,2.849-1.723,4.14 c-0.129,0.211-0.393,0.297-0.621,0.197c-1.437-0.61-2.582-0.384-3.506,0.692c-0.755,0.88-0.86,1.896-0.323,3.106 c0.1,0.226,0.021,0.489-0.186,0.623c-0.091,0.062-0.138,0.093-0.188,0.122c-1.179,0.702-2.451,1.229-3.781,1.564 c-0.536,0.136-0.758-0.199-0.843-0.411c-0.462-1.149-1.453-1.831-2.657-1.831c-0.013,0-0.025,0-0.039,0 c-1.138,0.015-2.121,0.742-2.564,1.898c-0.008,0.021-0.045,0.098-0.056,0.117C56.353,75.023,56.158,75.15,55.966,75.15z M52.596,72.802c0.98,0.555,2.021,0.979,3.102,1.265c0.669-1.361,1.942-2.21,3.354-2.229c0.019,0,0.036,0,0.054,0 c1.538,0,2.817,0.819,3.477,2.214c1.095-0.299,2.13-0.728,3.1-1.283c-0.492-1.398-0.274-2.689,0.64-3.755 c1.119-1.305,2.583-1.685,4.247-1.119c0.562-0.977,0.994-2.011,1.286-3.084c-1.443-0.686-2.219-1.843-2.252-3.37l0,0 c-0.034-1.621,0.75-2.846,2.273-3.563c-0.21-0.853-0.837-2.376-1.271-3.09c-1.543,0.589-2.948,0.309-4.087-0.817 c-1.141-1.126-1.431-2.539-0.851-4.104c-0.979-0.562-2.018-0.989-3.096-1.278c-0.617,1.408-1.706,2.204-3.173,2.312 c-1.741,0.131-3.063-0.663-3.813-2.297c-1.097,0.305-2.133,0.738-3.089,1.293c0.587,1.541,0.314,2.944-0.802,4.079 c-1.129,1.148-2.54,1.445-4.103,0.87c-0.551,0.976-0.973,2.016-1.258,3.098c1.464,0.672,2.252,1.831,2.288,3.376 c0.039,1.61-0.733,2.832-2.239,3.555c0.297,1.072,0.732,2.104,1.301,3.077c1.51-0.536,2.885-0.256,3.994,0.822 C52.814,69.878,53.127,71.264,52.596,72.802z M59.091,64.167L59.091,64.167c-0.764-0.004-1.479-0.303-2.014-0.842 c-0.537-0.539-0.831-1.255-0.827-2.016s0.303-1.473,0.844-2.006c0.544-0.537,1.288-0.84,2.036-0.82 c0.768,0.007,1.484,0.315,2.017,0.869c0.534,0.555,0.816,1.284,0.794,2.056c-0.045,1.538-1.294,2.75-2.846,2.759 C59.094,64.167,59.093,64.167,59.091,64.167z M59.102,59.483c-0.494,0-0.957,0.188-1.306,0.532 c-0.35,0.345-0.544,0.806-0.546,1.298c-0.002,0.493,0.188,0.957,0.536,1.307s0.811,0.544,1.305,0.547 c1.009-0.007,1.821-0.792,1.85-1.788c0.015-0.5-0.168-0.974-0.514-1.333c-0.346-0.358-0.81-0.558-1.307-0.562 C59.115,59.483,59.109,59.483,59.102,59.483z"/><path fill="#7878aa" d="M67.589,59.27c-1.186-4.612-5.925-7.398-10.584-6.224s-7.475,5.864-6.289,10.476 c1.186,4.612,5.925,7.398,10.584,6.224C65.96,68.572,68.775,63.882,67.589,59.27z M60.868,68.064 c-3.721,0.938-7.505-1.288-8.452-4.971s1.301-7.428,5.022-8.366s7.354,1.4,8.301,5.083S64.589,67.127,60.868,68.064z"/><path fill="#472b29" d="M59.127,68.568c-3.157,0-6.042-2.133-6.855-5.329c-0.962-3.779,1.33-7.638,5.109-8.6 c1.829-0.468,3.733-0.192,5.358,0.773c1.624,0.965,2.775,2.505,3.241,4.336c0.962,3.779-1.33,7.638-5.109,8.6l0,0 C60.289,68.497,59.704,68.568,59.127,68.568z M60.81,68.106h0.006H60.81z M59.138,54.918c-0.544,0-1.092,0.068-1.634,0.206 c-3.512,0.895-5.642,4.479-4.748,7.992c0.895,3.512,4.479,5.641,7.992,4.748l0,0c3.512-0.895,5.642-4.479,4.748-7.992 c-0.434-1.701-1.503-3.133-3.013-4.029C61.455,55.231,60.305,54.918,59.138,54.918z M50.915,58.675 c-0.028,0-0.057-0.005-0.085-0.015c-0.13-0.047-0.197-0.189-0.15-0.32c1.008-2.806,3.333-4.919,6.219-5.654 c0.131-0.03,0.271,0.047,0.304,0.181c0.034,0.134-0.047,0.27-0.181,0.304c-2.725,0.694-4.92,2.69-5.871,5.34 C51.113,58.612,51.017,58.675,50.915,58.675z"/><path fill="#472b29" d="M59.31,70.184c-0.899,0-1.816-0.132-2.725-0.402c-3.098-0.92-5.397-3.244-6.152-6.216 c-0.034-0.134,0.047-0.27,0.181-0.304c0.132-0.033,0.271,0.046,0.304,0.181c0.711,2.8,2.883,4.99,5.811,5.86 c2.949,0.874,5.989,0.22,8.135-1.756c0.102-0.095,0.26-0.087,0.353,0.015c0.094,0.102,0.087,0.259-0.015,0.353 C63.588,69.401,61.501,70.184,59.31,70.184z"/><path fill="#a2a2cc" d="M66.739,65.531c-0.18,0.329-0.379,0.647-0.599,0.95"/><path fill="#472b29" d="M66.14,66.731c-0.051,0-0.102-0.016-0.146-0.047c-0.111-0.081-0.137-0.237-0.057-0.35 c0.213-0.295,0.409-0.606,0.582-0.924c0.067-0.122,0.22-0.164,0.34-0.1c0.121,0.066,0.165,0.219,0.1,0.34 c-0.184,0.335-0.391,0.664-0.615,0.977C66.294,66.695,66.217,66.731,66.14,66.731z"/><path fill="#a2a2cc" d="M67.589,63.289c-0.119,0.522-0.287,1.033-0.5,1.524"/><path fill="#472b29" d="M67.089,65.062c-0.033,0-0.067-0.007-0.1-0.021c-0.127-0.055-0.185-0.202-0.13-0.329 c0.207-0.478,0.371-0.976,0.485-1.479c0.032-0.135,0.169-0.214,0.3-0.188c0.135,0.031,0.219,0.165,0.188,0.3 c-0.122,0.534-0.296,1.062-0.515,1.567C67.278,65.005,67.186,65.062,67.089,65.062z M67.536,59.462 c-0.111,0-0.214-0.075-0.242-0.188c-0.701-2.754-2.726-4.959-5.413-5.896c-0.131-0.046-0.199-0.188-0.154-0.318 c0.046-0.131,0.188-0.196,0.318-0.154c2.848,0.994,4.99,3.329,5.733,6.246c0.034,0.134-0.047,0.27-0.181,0.304 C67.577,59.46,67.556,59.462,67.536,59.462z"/><path fill="#a2a2cc" d="M62.198,55.184l2.312-0.559"/><path fill="#472b29" d="M62.198,55.309c-0.057,0-0.107-0.038-0.121-0.096c-0.017-0.067,0.024-0.135,0.092-0.15l2.312-0.56 c0.067-0.018,0.135,0.024,0.15,0.092c0.017,0.067-0.024,0.135-0.092,0.15l-2.312,0.56C62.217,55.308,62.208,55.309,62.198,55.309z"/><path fill="#a2a2cc" d="M64.214,56.513l1.739-0.288"/><path fill="#472b29" d="M64.213,56.637c-0.061,0-0.113-0.043-0.123-0.104c-0.012-0.068,0.034-0.133,0.103-0.144 l1.739-0.287c0.067-0.013,0.133,0.034,0.144,0.103c0.012,0.068-0.034,0.133-0.103,0.144l-1.739,0.287 C64.227,56.636,64.22,56.637,64.213,56.637z"/><path fill="#a2a2cc" d="M65.341,58.297l1.764-0.19"/><path fill="#472b29" d="M65.341,58.422c-0.063,0-0.117-0.048-0.124-0.111c-0.008-0.069,0.042-0.131,0.11-0.138l1.764-0.19 c0.005-0.001,0.01-0.001,0.014-0.001c0.063,0,0.117,0.048,0.124,0.111c0.008,0.069-0.042,0.131-0.11,0.138l-1.764,0.19 C65.35,58.422,65.345,58.422,65.341,58.422z"/><path fill="#a2a2cc" d="M55.793,53.424l0.174,1.615"/><path fill="#472b29" d="M55.967,55.164c-0.063,0-0.117-0.048-0.124-0.111l-0.174-1.615 c-0.008-0.069,0.042-0.131,0.11-0.138c0.005-0.001,0.01-0.001,0.014-0.001c0.063,0,0.117,0.048,0.124,0.111l0.174,1.615 c0.008,0.069-0.042,0.131-0.11,0.138C55.976,55.164,55.971,55.164,55.967,55.164z"/><path fill="#a2a2cc" d="M54.077,54.329l0.533,1.785"/><path fill="#472b29" d="M54.61,56.239c-0.054,0-0.104-0.035-0.12-0.089l-0.532-1.785c-0.02-0.066,0.019-0.136,0.084-0.156 c0.073-0.014,0.137,0.019,0.156,0.084l0.532,1.785c0.02,0.066-0.019,0.136-0.084,0.156C54.633,56.237,54.622,56.239,54.61,56.239z"/><path fill="#a2a2cc" d="M52.356,55.906l1.049,1.554"/><path fill="#472b29" d="M53.405,57.585c-0.04,0-0.079-0.02-0.104-0.055l-1.049-1.554c-0.039-0.058-0.023-0.136,0.033-0.174 c0.057-0.039,0.135-0.023,0.174,0.033l1.049,1.554c0.039,0.058,0.023,0.136-0.033,0.174 C53.454,57.578,53.429,57.585,53.405,57.585z"/><path fill="#a2a2cc" d="M51.103,64.614l1.789-0.092"/><path fill="#472b29" d="M51.103,64.74c-0.066,0-0.121-0.052-0.125-0.118c-0.003-0.069,0.05-0.128,0.118-0.132l1.789-0.093 c0.003,0,0.005,0,0.007,0c0.066,0,0.121,0.052,0.125,0.118c0.003,0.069-0.05,0.128-0.118,0.132L51.11,64.74 C51.107,64.74,51.105,64.74,51.103,64.74z"/><path fill="#a2a2cc" d="M52.181,66.556l1.736-0.517"/><path fill="#472b29" d="M52.18,66.681c-0.054,0-0.104-0.035-0.12-0.089c-0.02-0.066,0.019-0.136,0.084-0.156l1.736-0.518 c0.073-0.015,0.136,0.019,0.156,0.084c0.02,0.066-0.019,0.136-0.084,0.156l-1.736,0.518C52.204,66.679,52.192,66.681,52.18,66.681 z"/><path fill="#a2a2cc" d="M54.048,68.18l1.465-0.753"/><path fill="#472b29" d="M54.047,68.305c-0.045,0-0.089-0.024-0.111-0.068c-0.031-0.061-0.007-0.137,0.055-0.168 l1.466-0.753c0.059-0.029,0.136-0.008,0.168,0.055c0.031,0.061,0.007,0.137-0.055,0.168l-1.466,0.753 C54.086,68.3,54.067,68.305,54.047,68.305z"/><path fill="#a2a2cc" d="M56.438,69.298l1.083-1.035"/><path fill="#472b29" d="M56.438,69.423c-0.033,0-0.065-0.013-0.091-0.039c-0.047-0.05-0.046-0.129,0.005-0.177l1.083-1.035 c0.049-0.046,0.128-0.046,0.177,0.005c0.047,0.05,0.046,0.129-0.005,0.177l-1.083,1.035 C56.501,69.412,56.469,69.423,56.438,69.423z"/><path fill="#a2a2cc" d="M59.018,69.925l0.84-1.567"/><path fill="#472b29" d="M59.018,70.049c-0.021,0-0.04-0.005-0.06-0.015c-0.061-0.033-0.083-0.108-0.051-0.17l0.841-1.566 c0.033-0.062,0.106-0.083,0.17-0.051c0.061,0.033,0.083,0.108,0.051,0.17l-0.841,1.566 C59.106,70.026,59.063,70.049,59.018,70.049z"/><path fill="#a2a2cc" d="M61.801,69.476l0.132-1.646"/><path fill="#472b29" d="M61.801,69.601c-0.003,0-0.007,0-0.01,0c-0.069-0.006-0.12-0.066-0.115-0.135l0.132-1.646 c0.006-0.068,0.063-0.11,0.135-0.115c0.069,0.006,0.12,0.066,0.115,0.135l-0.132,1.646C61.92,69.551,61.866,69.601,61.801,69.601 z"/><g><path fill="#a2a2cc" d="M57.847,52.732c0.53-0.073,1.067-0.096,1.602-0.07"/><path fill="#472b29" d="M57.847,52.982c-0.123,0-0.23-0.091-0.248-0.216c-0.019-0.138,0.077-0.264,0.214-0.282 c0.544-0.074,1.097-0.101,1.647-0.072c0.138,0.007,0.244,0.124,0.238,0.262c-0.007,0.138-0.12,0.24-0.262,0.238 c-0.52-0.026-1.042-0.001-1.556,0.068C57.87,52.981,57.858,52.982,57.847,52.982z"/></g></g></svg>