<svg xmlns="http://www.w3.org/2000/svg" viewBox="0 0 100 100" width="200px" height="200px"><path fill="#c7ede6" d="M87.215,56.71C88.35,54.555,89,52.105,89,49.5c0-6.621-4.159-12.257-10.001-14.478 C78.999,35.015,79,35.008,79,35c0-11.598-9.402-21-21-21c-9.784,0-17.981,6.701-20.313,15.757C36.211,29.272,34.638,29,33,29 c-7.692,0-14.023,5.793-14.89,13.252C12.906,43.353,9,47.969,9,53.5C9,59.851,14.149,65,20.5,65c0.177,0,0.352-0.012,0.526-0.022 C21.022,65.153,21,65.324,21,65.5C21,76.822,30.178,86,41.5,86c6.437,0,12.175-2.972,15.934-7.614C59.612,80.611,62.64,82,66,82 c4.65,0,8.674-2.65,10.666-6.518C77.718,75.817,78.837,76,80,76c6.075,0,11-4.925,11-11C91,61.689,89.53,58.727,87.215,56.71z"/><path fill="#fdfcef" d="M40.875,31.5c0,0,3.64,0,6.125,0s4.5-2.015,4.5-4.5c0-2.333-1.782-4.229-4.055-4.455 C47.467,22.364,47.5,22.187,47.5,22c0-2.485-2.015-4.5-4.5-4.5c-1.438,0-2.703,0.686-3.527,1.736 C39.333,16.6,37.171,14.5,34.5,14.5c-2.761,0-5,2.239-5,5c0,0.446,0.077,0.87,0.187,1.282C29.045,20.005,28.086,19.5,27,19.5 c-1.781,0-3.234,1.335-3.455,3.055C23.364,22.533,23.187,22.5,23,22.5c-2.485,0-4.5,2.015-4.5,4.5s2.015,4.5,4.5,4.5s9.5,0,9.5,0 h5.375V32h3V31.5z"/><path fill="#472b29" d="M34.5,14c-3.033,0-5.5,2.467-5.5,5.5c0,0.016,0,0.031,0,0.047C28.398,19.192,27.71,19,27,19 c-1.831,0-3.411,1.261-3.858,3.005C23.095,22.002,23.048,22,23,22c-2.757,0-5,2.243-5,5s2.243,5,5,5h14.875 c0.276,0,0.5-0.224,0.5-0.5s-0.224-0.5-0.5-0.5H23c-2.206,0-4-1.794-4-4s1.794-4,4-4c0.117,0,0.23,0.017,0.343,0.032l0.141,0.019 c0.021,0.003,0.041,0.004,0.062,0.004c0.246,0,0.462-0.185,0.495-0.437C24.232,21.125,25.504,20,27,20 c0.885,0,1.723,0.401,2.301,1.1c0.098,0.118,0.241,0.182,0.386,0.182c0.078,0,0.156-0.018,0.228-0.056 c0.209-0.107,0.314-0.346,0.254-0.573C30.054,20.218,30,19.852,30,19.5c0-2.481,2.019-4.5,4.5-4.5 c2.381,0,4.347,1.872,4.474,4.263c0.011,0.208,0.15,0.387,0.349,0.45c0.05,0.016,0.101,0.024,0.152,0.024 c0.15,0,0.296-0.069,0.392-0.192C40.638,18.563,41.779,18,43,18c2.206,0,4,1.794,4,4c0,0.117-0.017,0.23-0.032,0.343l-0.019,0.141 c-0.016,0.134,0.022,0.268,0.106,0.373c0.084,0.105,0.207,0.172,0.34,0.185C49.451,23.247,51,24.949,51,27c0,2.206-1.794,4-4,4 h-6.125c-0.276,0-0.5,0.224-0.5,0.5s0.224,0.5,0.5,0.5H47c2.757,0,5-2.243,5-5c0-2.397-1.689-4.413-4.003-4.877 C47.999,22.082,48,22.041,48,22c0-2.757-2.243-5-5-5c-1.176,0-2.293,0.416-3.183,1.164C39.219,15.76,37.055,14,34.5,14L34.5,14z"/><path fill="#472b29" d="M33,21c-1.403,0-2.609,0.999-2.913,2.341C29.72,23.119,29.301,23,28.875,23 c-1.202,0-2.198,0.897-2.353,2.068C26.319,25.022,26.126,25,25.937,25c-1.529,0-2.811,1.2-2.918,2.732 C23.01,27.87,23.114,27.99,23.251,28c0.006,0,0.012,0,0.018,0c0.13,0,0.24-0.101,0.249-0.232c0.089-1.271,1.151-2.268,2.419-2.268 c0.229,0,0.47,0.042,0.738,0.127c0.022,0.007,0.045,0.01,0.067,0.01c0.055,0,0.11-0.02,0.156-0.054 C26.962,25.537,27,25.455,27,25.375c0-1.034,0.841-1.875,1.875-1.875c0.447,0,0.885,0.168,1.231,0.473 c0.047,0.041,0.106,0.063,0.165,0.063c0.032,0,0.063-0.006,0.093-0.019c0.088-0.035,0.148-0.117,0.155-0.212 C30.623,22.512,31.712,21.5,33,21.5c0.208,0,0.425,0.034,0.682,0.107c0.023,0.007,0.047,0.01,0.07,0.01 c0.109,0,0.207-0.073,0.239-0.182c0.038-0.133-0.039-0.271-0.172-0.309C33.517,21.04,33.256,21,33,21L33,21z"/><path fill="#fff" d="M86.405,59H76.5c-0.276,0-0.5-0.224-0.5-0.5s0.224-0.5,0.5-0.5h9.905c0.276,0,0.5,0.224,0.5,0.5 S86.682,59,86.405,59z"/><path fill="#fff" d="M89.5,59h-1c-0.276,0-0.5-0.224-0.5-0.5s0.224-0.5,0.5-0.5h1c0.276,0,0.5,0.224,0.5,0.5 S89.777,59,89.5,59z"/><path fill="#fff" d="M94.491,61H85.5c-0.276,0-0.5-0.224-0.5-0.5s0.224-0.5,0.5-0.5h8.991c0.276,0,0.5,0.224,0.5,0.5 S94.767,61,94.491,61z"/><path fill="#fff" d="M83.5,61h-1c-0.276,0-0.5-0.224-0.5-0.5s0.224-0.5,0.5-0.5h1c0.276,0,0.5,0.224,0.5,0.5 S83.777,61,83.5,61z"/><path fill="#fff" d="M80.5,61h-2c-0.276,0-0.5-0.224-0.5-0.5s0.224-0.5,0.5-0.5h2c0.276,0,0.5,0.224,0.5,0.5 S80.777,61,80.5,61z"/><path fill="#fff" d="M86.5,63h-2c-0.276,0-0.5-0.224-0.5-0.5s0.224-0.5,0.5-0.5h2c0.276,0,0.5,0.224,0.5,0.5 S86.776,63,86.5,63z"/><path fill="#fff" d="M89.5,54c-0.177,0-0.823,0-1,0c-0.276,0-0.5,0.224-0.5,0.5c0,0.276,0.224,0.5,0.5,0.5 c0.177,0,0.823,0,1,0c0.276,0,0.5-0.224,0.5-0.5C90,54.224,89.776,54,89.5,54z"/><path fill="#fff" d="M89.5,56c-0.177,0-4.823,0-5,0c-0.276,0-0.5,0.224-0.5,0.5c0,0.276,0.224,0.5,0.5,0.5 c0.177,0,4.823,0,5,0c0.276,0,0.5-0.224,0.5-0.5C90,56.224,89.776,56,89.5,56z"/><path fill="#fff" d="M94.5,58c-0.177,0-2.823,0-3,0c-0.276,0-0.5,0.224-0.5,0.5c0,0.276,0.224,0.5,0.5,0.5 c0.177,0,2.823,0,3,0c0.276,0,0.5-0.224,0.5-0.5C95,58.224,94.776,58,94.5,58z"/><g><path fill="#fff" d="M16.5,46h-10C6.224,46,6,45.776,6,45.5S6.224,45,6.5,45h10c0.276,0,0.5,0.224,0.5,0.5 S16.776,46,16.5,46z"/><path fill="#fff" d="M20.5,46h-2c-0.276,0-0.5-0.224-0.5-0.5s0.224-0.5,0.5-0.5h2c0.276,0,0.5,0.224,0.5,0.5 S20.776,46,20.5,46z"/><path fill="#fff" d="M25.5,48h-10c-0.276,0-0.5-0.224-0.5-0.5s0.224-0.5,0.5-0.5h10c0.276,0,0.5,0.224,0.5,0.5 S25.777,48,25.5,48z"/><path fill="#fff" d="M13.5,48h-1c-0.276,0-0.5-0.224-0.5-0.5s0.224-0.5,0.5-0.5h1c0.276,0,0.5,0.224,0.5,0.5 S13.776,48,13.5,48z"/><path fill="#fff" d="M10.47,48H8.5C8.224,48,8,47.776,8,47.5S8.224,47,8.5,47h1.97c0.276,0,0.5,0.224,0.5,0.5 S10.746,48,10.47,48z"/><path fill="#fff" d="M19.5,44h-5c-0.276,0-0.5-0.224-0.5-0.5s0.224-0.5,0.5-0.5h5c0.276,0,0.5,0.224,0.5,0.5 S19.777,44,19.5,44z"/><path fill="#fff" d="M16.5,50h-2c-0.276,0-0.5-0.224-0.5-0.5s0.224-0.5,0.5-0.5h2c0.276,0,0.5,0.224,0.5,0.5 S16.776,50,16.5,50z"/></g><g><path fill="#fdfcef" d="M73.5,76.5c0,0,1.567,0,3.5,0s3.5-1.567,3.5-3.5c0-1.781-1.335-3.234-3.055-3.455 C77.473,69.366,77.5,69.187,77.5,69c0-1.933-1.567-3.5-3.5-3.5c-1.032,0-1.95,0.455-2.59,1.165 c-0.384-1.808-1.987-3.165-3.91-3.165c-2.209,0-4,1.791-4,4c0,0.191,0.03,0.374,0.056,0.558C63.128,67.714,62.592,67.5,62,67.5 c-1.228,0-2.245,0.887-2.455,2.055C59.366,69.527,59.187,69.5,59,69.5c-1.933,0-3.5,1.567-3.5,3.5s1.567,3.5,3.5,3.5s7.5,0,7.5,0 V77h7V76.5z"/><path fill="#472b29" d="M75.25,72C75.112,72,75,71.888,75,71.75c0-1.223,0.995-2.218,2.218-2.218 c0.034,0.009,0.737-0.001,1.244,0.136c0.133,0.036,0.212,0.173,0.176,0.306c-0.036,0.134-0.173,0.213-0.306,0.176 c-0.444-0.12-1.1-0.12-1.113-0.118c-0.948,0-1.719,0.771-1.719,1.718C75.5,71.888,75.388,72,75.25,72z"/><circle cx="68.5" cy="76.5" r=".5" fill="#472b29"/><path fill="#472b29" d="M77,77h-3.5c-0.276,0-0.5-0.224-0.5-0.5s0.224-0.5,0.5-0.5H77c1.654,0,3-1.346,3-3 c0-1.496-1.125-2.768-2.618-2.959c-0.134-0.018-0.255-0.088-0.336-0.196s-0.115-0.244-0.094-0.377C76.975,69.314,77,69.16,77,69 c0-1.654-1.346-3-3-3c-0.85,0-1.638,0.355-2.219,1c-0.125,0.139-0.321,0.198-0.5,0.148c-0.182-0.049-0.321-0.195-0.36-0.379 C70.58,65.165,69.141,64,67.5,64c-1.93,0-3.5,1.57-3.5,3.5c0,0.143,0.021,0.28,0.041,0.418c0.029,0.203-0.063,0.438-0.242,0.54 c-0.179,0.102-0.396,0.118-0.556-0.01C62.878,68.155,62.449,68,62,68c-0.966,0-1.792,0.691-1.963,1.644 c-0.048,0.267-0.296,0.446-0.569,0.405C59.314,70.025,59.16,70,59,70c-1.654,0-3,1.346-3,3s1.346,3,3,3h7.5 c0.276,0,0.5,0.224,0.5,0.5S66.776,77,66.5,77H59c-2.206,0-4-1.794-4-4s1.794-4,4-4c0.059,0,0.116,0.002,0.174,0.006 C59.588,67.82,60.711,67,62,67c0.349,0,0.689,0.061,1.011,0.18C63.176,64.847,65.126,63,67.5,63c1.831,0,3.466,1.127,4.153,2.774 C72.333,65.276,73.155,65,74,65c2.206,0,4,1.794,4,4c0,0.048-0.001,0.095-0.004,0.142C79.739,69.59,81,71.169,81,73 C81,75.206,79.206,77,77,77z"/><path fill="#472b29" d="M71.5,76c-0.159,0-0.841,0-1,0c-0.276,0-0.5,0.224-0.5,0.5c0,0.276,0.224,0.5,0.5,0.5 c0.159,0,0.841,0,1,0c0.276,0,0.5-0.224,0.5-0.5C72,76.224,71.776,76,71.5,76z"/></g><g><path fill="#e1e0d8" d="M67,42v5.864c0,4.502-7.104,6.703-13.975,8.83c-4.258,1.319-8.365,2.6-11.025,4.51V32.5h-3v33.812 c0,0.002,0,0.004,0,0.006V69h0h3h0v-2.686c0.005-3.067,6.058-4.942,11.913-6.755C61.453,57.225,70,54.578,70,47.864V42H67z"/><path fill="#472b29" d="M42.5,69.5h-4V32h4v28.272c2.738-1.69,6.616-2.891,10.377-4.056 c6.698-2.074,13.623-4.218,13.623-8.352V41.5h4v6.364c0,7.083-8.734,9.787-16.439,12.173c-5.417,1.677-11.556,3.579-11.561,6.278 V69.5z M39.5,68.5h2l0-2.186c0.006-3.436,5.96-5.28,12.265-7.232C61.14,56.798,69.5,54.209,69.5,47.864V42.5h-2v5.364 c0,4.871-7.284,7.127-14.327,9.308c-4.064,1.259-8.266,2.56-10.881,4.439L41.5,62.179V33h-2L39.5,68.5z"/><circle cx="40.5" cy="31.5" r="4.8" fill="#77cbd2"/><path fill="#472b29" d="M40.5,27.4c2.261,0,4.1,1.839,4.1,4.1s-1.839,4.1-4.1,4.1s-4.1-1.839-4.1-4.1 S38.239,27.4,40.5,27.4 M40.5,26c-3.038,0-5.5,2.462-5.5,5.5s2.462,5.5,5.5,5.5s5.5-2.462,5.5-5.5S43.538,26,40.5,26L40.5,26z"/><path fill="#472b29" d="M40.5,33.75c-1.241,0-2.25-1.009-2.25-2.25s1.009-2.25,2.25-2.25s2.25,1.009,2.25,2.25 S41.741,33.75,40.5,33.75z M40.5,29.75c-0.965,0-1.75,0.785-1.75,1.75s0.785,1.75,1.75,1.75s1.75-0.785,1.75-1.75 S41.465,29.75,40.5,29.75z"/><circle cx="40.5" cy="72.5" r="4.8" fill="#00a5a5"/><path fill="#472b29" d="M40.5,68.4c2.261,0,4.1,1.839,4.1,4.1s-1.839,4.1-4.1,4.1s-4.1-1.839-4.1-4.1 S38.239,68.4,40.5,68.4 M40.5,67c-3.038,0-5.5,2.462-5.5,5.5s2.462,5.5,5.5,5.5s5.5-2.462,5.5-5.5S43.538,67,40.5,67L40.5,67z"/><circle cx="68.5" cy="38.5" r="4.8" fill="#77cbd2"/><path fill="#472b29" d="M68.5,34.4c2.261,0,4.1,1.839,4.1,4.1s-1.839,4.1-4.1,4.1s-4.1-1.839-4.1-4.1 S66.239,34.4,68.5,34.4 M68.5,33c-3.038,0-5.5,2.462-5.5,5.5s2.462,5.5,5.5,5.5s5.5-2.462,5.5-5.5S71.538,33,68.5,33L68.5,33z"/><path fill="#472b29" d="M68.5,40.75c-1.241,0-2.25-1.009-2.25-2.25s1.009-2.25,2.25-2.25s2.25,1.009,2.25,2.25 S69.741,40.75,68.5,40.75z M68.5,36.75c-0.965,0-1.75,0.785-1.75,1.75s0.785,1.75,1.75,1.75s1.75-0.785,1.75-1.75 S69.465,36.75,68.5,36.75z"/><path fill="#472b29" d="M40.5,74.75c-1.241,0-2.25-1.009-2.25-2.25s1.009-2.25,2.25-2.25s2.25,1.009,2.25,2.25 S41.741,74.75,40.5,74.75z M40.5,70.75c-0.965,0-1.75,0.785-1.75,1.75s0.785,1.75,1.75,1.75s1.75-0.785,1.75-1.75 S41.465,70.75,40.5,70.75z"/><g><path fill="#472b29" d="M44.5,41.75c-0.138,0-0.25-0.112-0.25-0.25v-4c0-0.138,0.112-0.25,0.25-0.25s0.25,0.112,0.25,0.25 v4C44.75,41.638,44.638,41.75,44.5,41.75z"/></g><g><path fill="#472b29" d="M44.5,56.75c-0.138,0-0.25-0.112-0.25-0.25v-12c0-0.138,0.112-0.25,0.25-0.25s0.25,0.112,0.25,0.25 v12C44.75,56.638,44.638,56.75,44.5,56.75z"/></g><g><path fill="#472b29" d="M64.807,58.989c-0.092,0-0.18-0.051-0.224-0.139c-0.061-0.124-0.011-0.274,0.113-0.335 c3.44-1.703,5.451-3.635,5.978-5.743c0.033-0.134,0.168-0.215,0.303-0.182c0.134,0.034,0.215,0.169,0.182,0.303 c-0.564,2.256-2.664,4.298-6.241,6.069C64.882,58.981,64.845,58.989,64.807,58.989z"/></g><g><path fill="#472b29" d="M45.917,66.083c-0.064,0-0.128-0.025-0.177-0.074c-0.097-0.098-0.097-0.255,0-0.352 c0.083-0.084,2.141-2.072,10.116-4.066c2.328-0.582,4.435-1.237,6.262-1.947c0.127-0.05,0.273,0.014,0.323,0.142 c0.05,0.129-0.014,0.274-0.143,0.324c-1.846,0.718-3.973,1.379-6.321,1.966c-7.799,1.95-9.865,3.915-9.884,3.935 C46.044,66.059,45.98,66.083,45.917,66.083z"/></g></g></svg>